<svg width="673" height="442" viewBox="0 0 673 442" fill="none" xmlns="http://www.w3.org/2000/svg">
<path d="M592.2 321.6V314.22H595.94C596.24 314.22 596.567 314.307 596.92 314.48C597.273 314.647 597.573 314.907 597.82 315.26C598.073 315.607 598.2 316.047 598.2 316.58C598.2 317.12 598.07 317.58 597.81 317.96C597.55 318.333 597.233 318.617 596.86 318.81C596.493 319.003 596.147 319.1 595.82 319.1H593.12V317.9H595.32C595.54 317.9 595.777 317.79 596.03 317.57C596.29 317.35 596.42 317.02 596.42 316.58C596.42 316.127 596.29 315.82 596.03 315.66C595.777 315.5 595.553 315.42 595.36 315.42H593.82V321.6H592.2ZM596.66 318.12L598.5 321.6H596.72L594.92 318.12H596.66ZM595 326C593.893 326 592.857 325.793 591.89 325.38C590.923 324.967 590.073 324.393 589.34 323.66C588.607 322.927 588.033 322.077 587.62 321.11C587.207 320.143 587 319.107 587 318C587 316.893 587.207 315.857 587.62 314.89C588.033 313.923 588.607 313.073 589.34 312.34C590.073 311.607 590.923 311.033 591.89 310.62C592.857 310.207 593.893 310 595 310C596.107 310 597.143 310.207 598.11 310.62C599.077 311.033 599.927 311.607 600.66 312.34C601.393 313.073 601.967 313.923 602.38 314.89C602.793 315.857 603 316.893 603 318C603 319.107 602.793 320.143 602.38 321.11C601.967 322.077 601.393 322.927 600.66 323.66C599.927 324.393 599.077 324.967 598.11 325.38C597.143 325.793 596.107 326 595 326ZM595 324.08C596.12 324.08 597.14 323.807 598.06 323.26C598.98 322.713 599.713 321.98 600.26 321.06C600.807 320.14 601.08 319.12 601.08 318C601.08 316.88 600.807 315.86 600.26 314.94C599.713 314.02 598.98 313.287 598.06 312.74C597.14 312.193 596.12 311.92 595 311.92C593.88 311.92 592.86 312.193 591.94 312.74C591.02 313.287 590.287 314.02 589.74 314.94C589.193 315.86 588.92 316.88 588.92 318C588.92 319.12 589.193 320.14 589.74 321.06C590.287 321.98 591.02 322.713 591.94 323.26C592.86 323.807 593.88 324.08 595 324.08Z" fill="white"/>
<path d="M529.8 314H496.2C496.09 314 496 314.09 496 314.2V317.829C496 317.928 496.073 318.012 496.17 318.028C500.751 318.784 502.824 320.321 505.5 325L533.449 393.875C533.48 393.951 533.553 394 533.635 394H537.37C537.449 394 537.521 393.954 537.553 393.881L566.945 327.986C567.98 325.666 569.092 323.337 570.801 321.458C572.786 319.274 574.728 318.419 577.823 318.022C577.923 318.009 578 317.924 578 317.823V313.208C578 313.094 577.906 313.003 577.793 313.008L551.193 313.993C551.085 313.997 551 314.085 551 314.193V317.849C551 317.938 551.059 318.017 551.145 318.041L557.275 319.793C557.704 319.915 558 320.308 558 320.754V324.258C558 325.737 557.702 327.202 557.123 328.563L539.691 369.55C539.621 369.715 539.387 369.711 539.321 369.545L523.831 330.115C523.282 328.717 523 327.229 523 325.727V322.263C523 320.923 523.888 319.746 525.176 319.378L529.855 318.041C529.941 318.017 530 317.938 530 317.849V314.2C530 314.09 529.91 314 529.8 314Z" fill="white"/>
<path fill-rule="evenodd" clip-rule="evenodd" d="M459 394C481.644 394 500 375.644 500 353C500 330.356 481.644 312 459 312C436.356 312 418 330.356 418 353C418 375.644 436.356 394 459 394ZM459 388C472.255 388 483 372.33 483 353C483 333.67 472.255 318 459 318C445.745 318 435 333.67 435 353C435 372.33 445.745 388 459 388Z" fill="white"/>
<path d="M304.334 371.026L298.217 371.967C298.1 371.985 298.025 372.099 298.053 372.213L302.477 389.908C302.492 389.966 302.533 390.015 302.587 390.041C312.29 394.612 318.112 395.244 329 393.5C343.704 389.297 349.845 384.362 350.94 372.415C351.444 366.907 349.775 361.317 346.149 357.139C341.079 351.297 334.087 346.692 321.5 340C299.541 328.326 334.867 303.095 343.452 332.334C343.479 332.426 343.569 332.494 343.665 332.485L348.794 332.019C348.907 332.009 348.988 331.907 348.974 331.795L347.017 316.135C347.007 316.053 346.947 315.986 346.867 315.966C322.796 309.778 304.496 316.029 302.5 332C300.5 352 319 356 331 365C353.964 378.978 316.617 406.414 304.556 371.166C304.525 371.074 304.43 371.011 304.334 371.026Z" fill="white"/>
<path d="M109 390.187V393.8C109 393.91 109.09 394 109.2 394H134.8C134.91 394 135 393.91 135 393.8V391.147C135 391.06 134.941 390.982 134.858 390.956C131.605 389.938 129.596 388.998 127.959 387.247C126.448 385.633 126.038 383.33 126.109 381.12L127.473 338.827C127.48 338.617 127.764 338.558 127.854 338.748L153.946 393.886C153.979 393.955 154.049 394 154.127 394H156.374C156.451 394 156.521 393.956 156.555 393.887L183.601 337.826C183.695 337.633 183.986 337.702 183.981 337.917L183.034 384.803C183.012 385.904 182.667 387.015 181.814 387.71C180.101 389.107 178.064 389.432 175.164 389.969C175.07 389.987 175 390.07 175 390.166V393.8C175 393.91 175.09 394 175.2 394H207.8C207.91 394 208 393.91 208 393.8V390.186C208 390.081 207.917 389.994 207.812 389.986C200.858 389.43 198 386.447 198 380.5L197.043 325.459C197.015 323.867 197.486 322.27 198.602 321.135C200.784 318.916 202.965 318.141 207 318V314H185.13C185.051 314 184.979 314.047 184.947 314.119L159.914 370.444C159.562 371.236 158.438 371.236 158.086 370.444L133.053 314.119C133.021 314.047 132.949 314 132.87 314H111.2C111.09 314 111 314.09 111 314.2V317.825C111 317.925 111.076 318.01 111.176 318.023C114.138 318.428 115.963 319.119 117.81 320.725C119.342 322.057 119.945 324.128 119.846 326.156L117.117 382.097C117.04 383.683 116.716 385.282 115.84 386.607C114.337 388.879 112.577 389.74 109.189 389.987C109.084 389.995 109 390.082 109 390.187Z" fill="white"/>
<path d="M97 364.5C96.0963 360.947 96.0793 358.87 97 355L0 359.5L97 364.5Z" fill="white"/>
<path fill-rule="evenodd" clip-rule="evenodd" d="M215.2 394C215.09 394 215 393.91 215 393.8V390.149C215 390.061 215.058 389.983 215.143 389.957L220 388.5C224.509 386.86 235.045 359.878 245.874 332.143C248.239 326.088 250.617 319.997 252.95 314.126C252.98 314.05 253.054 314 253.136 314H256.869C256.949 314 257.021 314.047 257.053 314.12L282.464 371.954C284.808 377.287 287.921 382.258 291.809 386.597C299.55 395.235 306.761 402.602 319.5 415C391.326 469.588 434.721 411.824 422.015 392.345C420.937 390.692 418.868 390.079 416.977 390.64C414.731 391.305 412.265 392.368 409.684 393.48C401.902 396.835 393.071 400.641 386.065 395.365C385.006 394.568 383.755 394 382.429 394H362.2C362.09 394 362 393.91 362 393.8V390.19C362 390.083 362.084 389.996 362.19 389.989C365.499 389.797 367.465 389.238 369.305 387.482C370.532 386.311 371 384.586 371 382.889V325.901C371 324.104 370.704 322.251 369.609 320.826C367.974 318.702 365.915 318.071 362.199 318.003C362.089 318.001 362 317.912 362 317.803V313.2C362 313.09 362.09 313 362.2 313H394.8C394.91 313 395 313.09 395 313.2V317.312C395 317.417 394.916 317.505 394.81 317.512C390.701 317.779 388.671 318.72 387.332 320.884C386.147 322.798 386 325.146 386 327.397V382.47C386 383.29 386.2 384.097 386.584 384.822C387.455 386.469 389.166 387.5 391.03 387.5H391.903C392.629 387.5 393.352 387.378 394.037 387.135C398.838 385.429 402.061 384.035 406.114 381.872C408.35 380.677 410.833 380 413.368 380C416.383 380 419.453 380.823 421.432 383.096C434.964 398.642 423.626 435.381 385 440.5C357 443.5 330 434.5 301 408C293.14 400.468 286.406 392.935 280.395 386.211C268.108 372.467 258.838 362.097 249.137 362.001C249.054 362 248.98 362.051 248.95 362.128L242.009 379.976C242.003 379.992 241.999 380.009 241.997 380.026C241.219 386.988 242.645 389.263 248.819 389.98C248.92 389.991 249 390.077 249 390.179V393.8C249 393.91 248.91 394 248.8 394H215.2ZM258.698 337.469C258.627 337.301 258.388 337.307 258.326 337.478L252.571 353.305C252.532 353.411 252.592 353.53 252.7 353.564C259.948 355.911 263.615 357.974 268.844 362.435C269.006 362.573 269.246 362.4 269.163 362.205L258.698 337.469Z" fill="white"/>
<path d="M576 364.5C576.904 360.947 576.921 358.87 576 355L673 359.5L576 364.5Z" fill="white"/>
<path d="M421.765 210.923L392.697 205.635C388.108 217.66 384.975 224.021 378.603 234.717C367.614 232.172 361.847 229.488 352.177 222.673C346.145 232.289 342.513 237.692 335.441 247.349C328.279 237.755 324.523 232.184 318.41 221.792C306.972 226.85 300.624 229.863 288.167 233.249C281.906 222.347 279.575 216.303 277.303 205.635C266.078 208.454 259.782 209.141 248.528 210.629C250.576 198.785 251.82 192.833 254.401 181.546C242.37 176.928 235.98 173.333 225.039 167.446C228.117 156.293 230.462 150.893 236.49 141.007C226.468 134.808 221.971 130.358 213 123.968L237.958 108.105L248.235 108.399L256.456 103.993C251.39 96.4318 249.299 91.3786 246.473 83.1352L262.622 77.5537H265.721C267.811 83.8827 270.361 90.2332 273.78 97.8233L281.414 95.7669C279.918 91.8019 278.839 88.3047 278.015 84.6039H283.704C284.402 88.518 285.439 92.6539 286.993 97.8233C262.382 103.861 249.827 109.838 228.268 125.143C240.122 133.188 248.14 138.689 257.44 143.33L251.131 143.337L247.647 141.594C240.797 149.562 238.508 154.572 235.609 163.92C245.198 169.519 250.99 172.103 262.329 175.377L264.971 167.152C256.285 164.632 251.555 162.379 243.537 158.633C245.778 152.406 247.367 149.516 251.198 143.357H257.494C262.103 145.655 266.956 147.815 272.605 150.113L276.467 150.138C268.053 166.274 264.001 179.328 259.392 201.228C279.77 197.909 290.852 195.223 309.014 186.54L307.253 179.783C294.295 183.943 287.626 184.719 276.129 185.071C276.573 180.779 277.042 176.946 277.688 173.321H280.016C279.883 174.411 279.863 175.49 279.946 176.846C289.52 177.461 295.441 177.124 308.134 173.908C312.55 188.921 316.601 199.423 321.84 209.706L318.138 209.716C317.065 208.054 316.36 206.614 315.474 204.46C308.045 208.596 303.676 210.764 295.214 214.154C291.955 208.757 290.669 205.238 289.342 197.997L284.938 199.466C286.892 210.691 288.725 215.958 292.865 224.142C304.122 220.112 310.001 217.444 319.585 211.804C319.035 211.05 318.57 210.383 318.159 209.747H321.861C325.596 217.074 329.935 224.292 335.441 232.955C340.883 225.355 345.004 219.119 348.72 212.685H352.177C360.012 219.219 365.099 221.707 374.492 225.611C380.543 215.5 382.972 209.491 385.943 198.29L377.722 195.647C375.301 204.367 373.532 209.015 369.501 216.798C363.09 214.464 359.735 212.813 354.232 209.16L352.196 212.652L348.753 212.627C352.998 205.27 356.717 197.646 361.279 187.421L354.232 183.309C348.488 194.388 344.788 200.138 336.615 208.866C323.55 193.93 319.049 184.353 315.474 165.389C302.504 169.206 294.818 169.711 280.827 169.502C280.426 170.993 280.162 172.144 280.021 173.28H277.695C279.648 162.353 283.215 153.304 292.572 139.244C280.25 132.021 274.151 127.244 264.971 117.212C262.248 118.649 261.099 119.73 259.392 121.912C267.197 130.489 272.212 134.382 282.001 140.125C279.968 143.633 278.141 146.93 276.484 150.106L272.625 150.073L276.129 142.769C265.548 137.236 260.099 132.917 251.465 124.85C264.242 112.046 274.057 108.342 294.333 103.699C290.911 92.1168 290.365 86.5163 291.397 77.8476L303.436 82.254C300.24 114.783 300.938 131.506 306.078 158.926C297.815 159.704 293.188 159.625 284.938 158.045L282.001 165.977C295.233 166.438 302.43 166 314.3 162.158C310.149 134.029 311.07 105.167 318.117 91.3605C324.434 96.1174 327.294 99.1625 331.33 105.167C324.488 110.851 320.782 115.149 314.3 123.968C315.032 161.538 319.057 178.581 333.091 201.228L335.734 198.584C330.051 186.798 327.475 179.651 323.989 165.977C328.757 177.548 331.898 183.878 339.551 194.472C344.399 189.038 347.014 185.451 351.59 178.609C373.984 192.087 387.268 196.917 412.076 201.228C410.091 190.601 408.209 182.552 405.795 174.496H410.336L410.608 175.083C420.563 173 426.017 171.65 434.098 166.858C431.553 156.299 429.157 150.592 423.527 140.713L415.306 144.532C420.374 152.542 422.562 157.043 424.995 165.095C419.754 168.044 415.972 169.27 408.846 171.264L410.32 174.46H405.784C403.649 167.34 401.097 160.211 397.688 151.288L390.641 153.051C393.941 165.374 395.137 172.262 395.339 184.484C375.136 182.597 365.431 178.724 350.122 168.327L338.67 184.484C325.608 159.352 322.93 147.164 321.053 126.612C326.351 118.772 329.508 115.147 335.441 109.868C344.543 122.793 347.772 133.369 332.798 142.182C329.417 138.13 328.149 133.89 326.926 128.669L324.576 131.606C325.37 138.902 326.086 142.833 328.393 149.232C337.096 146.301 340.86 143.801 346.305 138.363C343.971 143.758 339.071 147.905 329.568 153.051L331.33 158.045C359.518 142.182 361.719 128.275 342.194 104.58C347.777 99.3857 351.089 97.2008 357.462 94.5922C360.246 121.894 359.895 137.245 351.59 164.801L355.7 167.152C360.406 155.05 362.199 147.688 364.509 133.956C365.169 148.533 364.309 156.439 360.692 170.089C369.804 177.008 375.58 179.586 387.705 180.665C387.857 170.72 387.247 164.561 384.475 152.17C410.275 144.708 423.44 138.962 443.2 124.262C426.485 112.79 416.744 107.367 398.569 99.8798L395.046 106.343C406.412 112.099 411.902 115.445 420.004 123.675C408.197 135.141 398.48 140.258 376.841 145.707C380.045 156.973 381 163.384 380.364 175.083C374.238 173.256 371.214 171.76 366.564 168.327C371.516 140.042 371.476 122.961 365.39 89.8919C374.066 87.1329 378.958 86.7345 387.705 87.5416L388.175 86.3669H391.076C388.778 93.085 385.142 100.285 379.19 109.868C391.706 117.315 397.654 122.056 406.204 131.606L412.957 127.493C405.571 119.395 400.399 115.29 389.467 108.693C396.309 97.7657 400.756 88.7119 404.287 78.1694H407.556L406.204 81.9601C415.126 84.0365 419.542 85.135 426.757 88.7167C424.967 96.0388 423.431 100.026 420.004 105.167L423.527 107.518C430.093 99.477 432.535 94.4071 435.859 84.8978C427.025 79.5164 421.484 76.8731 409.139 73.7348L407.567 78.1411H404.296C407.125 69.6888 409.367 60.278 411.782 48.1773C392.267 51.1387 381.335 53.8895 361.866 62.2778L364.216 70.2097C376.015 66.2648 383.017 64.4514 395.046 63.7469C394.451 72.0396 393.52 79.2006 391.096 86.3088H388.198L389.467 83.1352C368.34 81.9815 356.921 84.6859 337.789 98.9985C329.73 91.3864 324.893 87.5289 315.474 81.6666C310.762 92.8706 309.215 99.8002 307.546 112.805C306.715 99.7885 307.238 92.3604 311.07 78.7289C300.25 73.0488 293.922 70.8449 282.295 68.1533C282.44 74.4847 282.764 79.2958 283.682 84.4833H277.988C276.812 79.1605 276.157 73.4023 275.542 65.2155C291.371 64.5457 301.555 68.7157 321.053 80.7854C328.321 67.6367 332.995 61.5386 342.487 53.1713L337.496 47.0023C329.532 55.091 325.755 60.1228 320.172 69.9158C318.171 68.7875 316.241 67.7202 314.367 66.7091L317.236 66.0968C322.885 54.0237 326.803 48.3872 334.853 39.952C347.599 54.6736 352.379 64.0052 355.994 83.1352C370.513 79.577 378.123 78.8041 390.641 79.9036C391.378 76.7867 391.544 74.9807 391.522 71.6783C379.74 71.3282 373.442 72.2847 362.747 75.7912C359.735 63.8421 356.603 54.633 352.377 45.6704L354.714 44.3285C354.899 44.5849 355.039 44.7081 355.113 44.6522C356.744 43.4228 370.67 36.6697 375.667 34.958C378.737 40.9022 380.12 44.3221 381.539 50.8214L386.237 49.0589C384.309 39.7324 382.461 34.6006 378.309 25.5576C367.558 28.1818 361.176 30.8076 351.296 36.7206C352.017 39.0434 353.831 43.0847 354.698 44.3059L352.365 45.6468C348.03 36.4558 342.543 27.5222 334.853 16.1571C323.83 33.0589 318.202 42.9636 309.895 61.9844L317.169 66.0597L314.321 66.6846C303.078 60.6183 293.867 56.5669 283.469 53.3954L293.159 54.0525C295.057 45.5315 296.718 40.8977 300.793 32.9016C307.467 35.0024 310.676 36.6678 316.061 39.952L318.704 36.4268C310.817 29.9859 305.792 27.4854 296.095 24.3825C289.847 33.9853 287.76 39.9095 284.938 50.8214L293.109 54.033L283.4 53.3744C276.072 51.1431 268.151 49.3474 258.511 47.5899C260.751 59.7707 262.792 68.6581 265.721 77.5401H262.611L261.448 73.1474L236.49 81.0788L247.941 108.105L237.664 107.812C232.058 96.7233 229.933 89.1327 226.8 76.3785C236.5 70.8268 242.261 68.9061 253.226 65.8034C250.907 55.1462 249.967 48.2991 248.822 36.7206L278.184 42.5958C282.083 31.3199 284.807 25.012 291.397 13.807C301.969 16.8469 307.983 19.3032 318.704 24.97C324.695 15.3641 328.37 10.0186 335.734 0.587645C342.61 10.653 346.356 16.236 351.883 25.5576C362.953 20.1815 369.526 17.553 382.126 13.807C387.73 24.4791 390.307 30.6044 392.991 42.0084C404.305 39.5206 410.739 37.9953 422.352 37.0143L416.187 66.6846C428.648 71.0392 435.329 73.4184 446.723 79.6102C442.905 90.969 440.462 97.7139 435.272 108.105C444.058 114.189 448.783 117.32 457 124.262C448.926 130.937 444.057 135.08 434.098 140.713C438.758 151.648 441.235 157.537 445.255 170.089C434.256 176.316 428.019 179.338 416.774 181.84C419.573 193.223 420.638 199.136 421.765 210.923Z" fill="white"/>
<path d="M421.765 210.923L392.697 205.047C388.108 217.073 384.975 223.434 378.603 234.13C367.614 231.585 361.847 228.9 352.177 222.086C346.145 231.701 342.513 237.105 335.441 246.761C328.279 237.168 324.523 231.596 318.41 221.204C306.972 226.262 300.624 229.275 288.167 232.661C281.906 221.759 279.575 215.715 277.303 205.047C266.078 207.866 259.782 209.141 248.528 210.629C250.576 198.785 251.82 192.246 254.401 180.959C242.37 176.341 235.98 173.333 225.039 167.446C228.117 156.293 230.462 150.306 236.49 140.419C226.468 134.22 221.971 130.358 213 123.968L237.958 107.518L248.235 107.811L256.456 103.405C251.39 95.8445 249.299 91.3786 246.473 83.1352L262.622 76.9659H265.721C267.811 83.2954 270.361 89.6454 273.78 97.236L281.414 95.1795C279.918 91.2141 278.839 87.7173 278.015 84.0165H283.704C284.402 87.9302 285.439 92.066 286.993 97.236C262.382 103.273 249.534 109.544 227.975 124.85C239.829 132.894 248.14 138.101 257.44 142.742L251.131 142.749L247.647 141.007C240.797 148.975 238.508 153.984 235.609 163.333C245.198 168.931 250.99 171.516 262.329 174.789L264.971 166.564C256.285 164.045 251.555 162.379 243.537 158.633C245.778 152.406 247.341 148.928 251.171 142.769H257.494C262.103 145.067 266.956 147.227 272.605 149.526L276.467 149.55C268.053 165.686 264.001 178.741 259.392 200.641C279.77 197.322 290.852 194.635 309.014 185.952L307.253 179.196C294.295 183.356 287.626 184.131 276.129 184.484C276.573 180.192 277.042 176.358 277.688 172.733H280.016C279.883 173.823 279.863 174.902 279.946 176.258C289.52 176.873 295.441 176.537 308.134 173.321C312.55 188.333 316.601 198.835 321.84 209.118L318.138 209.128C317.065 207.466 316.36 206.026 315.474 203.872C308.045 208.008 303.676 210.176 295.214 213.566C291.955 208.169 290.669 204.65 289.342 197.409L284.938 198.878C286.892 210.103 288.725 215.37 292.865 223.554C304.122 219.524 310.001 216.857 319.585 211.216C319.035 210.463 318.57 209.795 318.159 209.16H321.861C325.596 216.486 329.935 223.705 335.441 232.367C340.883 224.767 345.004 218.532 348.72 212.097H352.177C360.012 218.631 365.099 221.119 374.492 225.023C380.543 214.913 382.972 208.903 385.943 197.703L377.722 195.059C375.301 203.779 373.532 208.428 369.501 216.21C363.09 213.876 359.735 212.225 354.232 208.572L352.196 212.064L348.753 212.04C352.998 204.682 356.717 197.059 361.279 186.833L354.232 182.721C348.488 193.801 344.788 199.551 336.615 208.278C323.55 193.343 319.049 183.766 315.474 164.801C302.504 168.618 294.818 169.123 280.827 168.914C280.426 170.405 280.162 171.557 280.021 172.693H277.695C279.648 161.765 283.215 152.717 292.572 138.656C280.25 131.433 274.151 126.656 264.971 116.624C262.248 118.062 261.099 119.143 259.392 121.325C267.197 129.901 272.212 133.795 282.001 139.538C279.968 143.045 278.141 146.342 276.484 149.519L272.625 149.485L276.129 142.181C265.548 136.648 260.099 132.917 251.465 124.85C264.242 112.046 274.057 107.755 294.333 103.111C290.911 91.529 290.365 85.9284 291.397 77.2598L303.436 81.6661C300.24 114.195 300.938 130.919 306.078 158.339C297.815 159.116 293.188 159.037 284.938 157.457L282.001 165.389C295.233 165.851 302.43 165.413 314.3 161.57C310.149 133.442 311.07 104.58 318.117 90.7732C324.434 95.5296 327.294 98.5747 331.33 104.58C324.488 110.263 320.782 114.562 314.3 123.381C315.032 160.951 319.057 177.993 333.091 200.641L335.734 197.997C330.051 186.211 327.475 179.063 323.989 165.389C328.757 176.96 331.898 183.29 339.551 193.884C344.399 188.451 347.014 184.863 351.59 178.021C373.984 191.5 387.268 196.33 412.076 200.641C410.091 190.013 408.209 181.964 405.795 173.908H410.336L410.608 174.496C420.563 172.412 426.017 171.062 434.098 166.27C431.553 155.711 429.157 150.004 423.527 140.125L415.306 143.944C420.374 151.954 422.562 156.455 424.995 164.507C419.754 167.456 415.972 168.683 408.846 170.677L410.32 173.873H405.784C403.649 166.752 401.097 159.624 397.688 150.701L390.641 152.463C393.941 164.786 395.137 171.674 395.339 183.896C375.136 182.009 365.431 178.137 350.122 167.739L338.67 183.896C325.608 158.764 322.93 146.577 321.053 126.025C326.351 118.185 329.508 114.56 335.441 109.28C344.543 122.206 347.772 132.781 332.798 141.594C329.417 137.542 328.149 133.302 326.926 128.081L324.576 131.018C325.37 138.314 326.086 142.245 328.393 148.644C337.096 145.713 340.86 143.213 346.305 137.775C343.971 143.171 339.071 147.318 329.568 152.463L331.33 157.457C359.518 141.594 361.719 127.687 342.194 103.992C347.777 98.7983 351.089 96.613 357.462 94.0043C360.246 121.306 359.895 136.658 351.59 164.214L355.7 166.564C360.406 154.463 362.199 147.1 364.509 133.369C365.169 147.945 364.309 155.851 360.692 169.502C369.804 176.42 375.58 178.999 387.705 180.077C387.857 170.133 387.247 163.973 384.475 151.582C410.275 144.12 423.44 138.374 443.2 123.674C426.485 112.202 416.744 106.779 398.569 99.2919L395.046 105.755C406.412 111.511 411.902 115.445 420.004 123.675C408.197 135.141 398.48 139.67 376.841 145.119C380.045 156.385 381 162.797 380.364 174.496C374.238 172.668 371.214 171.172 366.564 167.739C371.516 139.455 371.476 122.373 365.39 89.3041C374.066 86.5451 378.958 86.1467 387.705 86.9542L388.175 85.779H391.076C388.778 92.4972 385.142 99.6976 379.19 109.28C391.706 116.727 397.654 121.469 406.204 131.018L412.957 126.906C405.571 118.807 400.399 114.703 389.467 108.105C396.309 97.1779 400.756 88.124 404.287 77.582H407.556L406.204 81.3727C415.126 83.4487 419.542 85.1346 426.757 88.7167C424.967 96.0383 423.431 99.4384 420.004 104.58L423.527 106.93C430.093 98.8891 432.535 93.8198 435.859 84.3104C427.025 78.9291 421.484 76.2853 409.139 73.1469L407.567 77.5537H404.296C407.125 69.1009 409.367 59.6902 411.782 47.5897C392.267 50.5509 381.335 53.3016 361.866 61.6905L364.216 69.6219C376.015 65.6774 383.017 64.4514 395.046 63.7469C394.451 72.0391 393.52 78.6132 391.096 85.7209H388.198L389.467 82.5474C368.34 81.3937 356.921 84.098 337.789 98.4107C329.73 90.7991 324.893 86.9415 315.474 81.0788C310.762 92.2828 309.215 99.2123 307.546 112.218C306.715 99.2006 307.238 91.7726 311.07 78.1411C300.25 72.461 293.922 70.2575 282.295 67.5654C282.44 73.8968 282.764 78.7079 283.682 83.8954H277.988C276.812 78.5732 276.157 72.8144 275.542 64.6282C291.371 63.9578 301.555 68.1279 321.053 80.1975C328.321 67.0494 332.995 60.9508 342.487 52.5839L337.496 46.4147C329.532 54.5032 325.755 59.5354 320.172 69.3284C318.171 68.2001 316.241 67.1328 314.367 66.1212L317.236 65.5095C322.885 53.4364 326.803 47.7996 334.853 39.3644C347.599 54.0857 352.379 63.4179 355.994 82.5474C370.513 78.9896 378.123 78.2168 390.641 79.3163C391.378 76.1989 391.544 74.3929 391.522 71.091C379.74 70.7404 373.442 71.6969 362.747 75.2034C359.735 63.2543 356.603 54.0452 352.377 45.0828L354.714 43.7408C354.899 43.9973 355.039 44.1205 355.113 44.0646C356.744 42.8352 370.67 36.0821 375.667 34.3703C378.737 40.3145 380.12 43.7345 381.539 50.2336L386.237 48.471C384.309 39.1448 382.461 34.0129 378.309 24.9699C367.558 27.5942 361.176 30.22 351.296 36.1329C352.017 38.4558 353.831 42.497 354.698 43.7182L352.365 45.0591C348.03 35.8682 342.543 26.9345 334.853 15.5695C323.83 32.4712 318.202 42.3759 309.895 61.3966L317.169 65.4724L314.321 66.0968C303.078 60.031 293.867 55.9796 283.469 52.808L293.159 53.4652C295.057 44.9439 296.718 40.3101 300.793 32.314C307.467 34.4148 310.676 36.0801 316.061 39.3644L318.704 35.8392C310.817 29.3983 305.792 26.8978 296.095 23.7949C289.847 33.3976 287.76 39.3218 284.938 50.2336L293.109 53.4452L283.4 52.787C276.072 50.5558 268.151 48.7596 258.511 47.0022C260.751 59.1834 262.792 68.0702 265.721 76.9522H262.611L261.448 72.5596L236.49 80.4914L247.941 107.518L237.664 107.224C232.058 96.1355 229.933 89.1327 226.8 76.3785C236.5 70.8268 242.261 68.3183 253.226 65.2155C250.907 54.5588 249.967 48.2991 248.822 36.7206L278.184 42.0082C282.083 30.7322 284.807 24.4244 291.397 13.2194C301.969 16.2592 307.983 18.7155 318.704 24.3824C324.695 14.7765 328.37 9.431 335.734 0C342.61 10.0654 346.356 15.6483 351.883 24.9699C362.953 19.5939 369.526 16.9654 382.126 13.2194C387.73 23.8915 390.307 30.0168 392.991 41.4207C404.305 38.9329 410.739 37.9953 422.352 37.0143L416.187 66.0968C428.648 70.4514 435.329 73.4184 446.723 79.6102C442.905 90.969 440.462 97.1261 435.272 107.518C444.058 113.602 448.783 117.32 457 124.262C448.926 130.937 444.057 134.492 434.098 140.125C438.758 151.061 441.235 157.537 445.255 170.089C434.256 176.316 428.019 178.75 416.774 181.252C419.573 192.636 420.638 199.136 421.765 210.923Z" fill="white"/>
<path d="M442.886 348H434.855C434.699 348 434.603 348.17 434.684 348.304L441.096 358.904C441.132 358.963 441.197 359 441.267 359H444.8C444.91 359 445 358.91 445 358.8V358.2C445 358.09 445.09 358 445.2 358H472.8C472.91 358 473 358.09 473 358.2V358.8C473 358.91 473.09 359 473.2 359H477.098C477.168 359 477.232 358.964 477.268 358.905L483.812 348.305C483.894 348.172 483.798 348 483.642 348H475.616C475.544 348 475.478 348.038 475.442 348.101L472.7 352.899C472.665 352.962 472.599 353 472.527 353H446.061C445.99 353 445.924 352.963 445.888 352.902L443.058 348.098C443.022 348.037 442.957 348 442.886 348Z" fill="white"/>
<path fill-rule="evenodd" clip-rule="evenodd" d="M459.172 388.222L475.645 361.535C475.727 361.402 475.631 361.23 475.475 361.23H442.858C442.702 361.23 442.606 361.4 442.687 361.534L458.831 388.22C458.908 388.348 459.093 388.349 459.172 388.222ZM459.325 375.703L453.785 366.302C453.706 366.168 453.802 366 453.957 366H464.87C465.023 366 465.12 366.166 465.043 366.299L459.671 375.701C459.595 375.834 459.403 375.835 459.325 375.703Z" fill="white"/>
<path d="M438 431.846V411.5C438 410.119 439.119 409 440.5 409C441.881 409 443 410.119 443 411.5V427.958C443 427.981 443.019 428 443.042 428H451.958C451.981 428 452 427.981 452 427.958V411.5C452 410.119 453.119 409 454.5 409C455.881 409 457 410.119 457 411.5V427.958C457 427.981 457.019 428 457.042 428H459.8C459.91 428 460 428.09 460 428.2V436.8C460 436.91 459.91 437 459.8 437H456.2C456.09 437 456 436.91 456 436.8V432.199C456 432.089 455.911 431.999 455.801 431.999L438.05 431.897C438.023 431.896 438 431.874 438 431.846Z" fill="white"/>
<path d="M464 431.8V410.2C464 410.09 464.09 410 464.2 410H477.8C477.91 410 478 410.09 478 410.2V412.8C478 412.91 477.91 413 477.8 413H469.2C469.09 413 469 413.09 469 413.2V417.8C469 417.91 469.09 418 469.2 418H476.8C476.91 418 477 418.09 477 418.2V421.8C477 421.91 476.91 422 476.8 422H469.2C469.09 422 469 422.09 469 422.2V427.8C469 427.91 469.09 428 469.2 428H477.8C477.91 428 478 428.09 478 428.2V431.8C478 431.91 477.91 432 477.8 432H464.2C464.09 432 464 431.91 464 431.8Z" fill="white"/>
<path d="M488 411.5V417.901C488 417.956 488.044 418 488.099 418H496.901C496.956 418 497 417.956 497 417.901V411.5C497 410.119 498.119 409 499.5 409C500.881 409 502 410.119 502 411.5V431.8C502 431.91 501.91 432 501.8 432H497.2C497.09 432 497 431.91 497 431.8V422.2C497 422.09 496.91 422 496.8 422H488.2C488.09 422 488 422.09 488 422.2V431.8C488 431.91 487.91 432 487.8 432H483.2C483.09 432 483 431.91 483 431.8V411.5C483 410.119 484.119 409 485.5 409C486.881 409 488 410.119 488 411.5Z" fill="white"/>
<path d="M505 410.2C505 410.09 505.09 410 505.2 410H522.8C522.91 410 523 410.09 523 410.2V412.8C523 412.91 522.91 413 522.8 413H517.2C517.09 413 517 413.09 517 413.2V431.8C517 431.91 516.91 432 516.8 432H512.2C512.09 432 512 431.91 512 431.8V413.2C512 413.09 511.91 413 511.8 413H505.2C505.09 413 505 412.91 505 412.8V410.2Z" fill="white"/>
<path fill-rule="evenodd" clip-rule="evenodd" d="M526.2 410H535.603C537.824 410 540.184 410.471 541.542 412.229C544.296 415.795 542.938 420.461 538.988 422.998C537.748 423.793 536.245 424 534.772 424H531.2C531.09 424 531 424.09 531 424.2V431.8C531 431.91 530.91 432 530.8 432H526.2C526.09 432 526 431.91 526 431.8V410.2C526 410.09 526.09 410 526.2 410ZM531 413H535C535.796 413 536.559 413.369 537.121 414.025C537.684 414.682 538 415.572 538 416.5C538 417.428 537.684 418.318 537.121 418.975C536.559 419.631 535.796 420 535 420H531V413Z" fill="white"/>
</svg>
